<?xml version="1.0" encoding="UTF-8" standalone="no"?>
<svg
   viewBox="0 0 600 600"
   version="1.1"
   id="svg1111"
   sodipodi:docname="google.svg"
   inkscape:version="1.2.2 (1:1.2.2+202305151914+b0a8486541)"
   width="600"
   height="600"
   xmlns:inkscape="http://www.inkscape.org/namespaces/inkscape"
   xmlns:sodipodi="http://sodipodi.sourceforge.net/DTD/sodipodi-0.dtd"
   xmlns="http://www.w3.org/2000/svg"
   xmlns:svg="http://www.w3.org/2000/svg">
  <defs
     id="defs1115" />
  <sodipodi:namedview
     id="namedview1113"
     pagecolor="#ffffff"
     bordercolor="#000000"
     borderopacity="0.25"
     inkscape:showpageshadow="2"
     inkscape:pageopacity="0.0"
     inkscape:pagecheckerboard="0"
     inkscape:deskcolor="#d1d1d1"
     showgrid="false"
     inkscape:zoom="1.0648034"
     inkscape:cx="244.17653"
     inkscape:cy="257.79407"
     inkscape:window-width="1846"
     inkscape:window-height="1016"
     inkscape:window-x="0"
     inkscape:window-y="0"
     inkscape:window-maximized="1"
     inkscape:current-layer="svg1111" />
  <rect
     style="fill:#ffffff"
     id="rect1982"
     width="600"
     height="600"
     x="0"
     y="0"
     rx="40"
     ry="40" />
  <!--! Font Awesome Free 6.2.0 by @fontawesome - https://fontawesome.com License - https://fontawesome.com/license/free (Icons: CC BY 4.0, Fonts: SIL OFL 1.1, Code: MIT License) Copyright 2022 Fonticons, Inc. -->
  <path
     d="M 544,305.8 C 544,447.3 447.1,548 304,548 166.8,548 56,437.2 56,300 56,162.8 166.8,52 304,52 c 66.8,0 123,24.5 166.3,64.9 l -67.5,64.9 C 314.5,96.6 150.3,160.6 150.3,300 c 0,86.5 69.1,156.6 153.7,156.6 98.2,0 135,-70.4 140.8,-106.9 H 304 v -85.3 h 236.1 c 2.3,12.7 3.9,24.9 3.9,41.4 z"
     id="path1109"
     style="fill:#e47c7c;fill-opacity:1" />
</svg>
